<svg width="32" height="24" viewBox="0 0 32 24" fill="none" xmlns="http://www.w3.org/2000/svg">
<path d="M31.292 3.90543L31.332 4.16677C30.9454 2.79477 29.9014 1.7361 28.5747 1.35077L28.5467 1.3441C26.052 0.666766 16.0134 0.666766 16.0134 0.666766C16.0134 0.666766 6.00003 0.653433 3.48003 1.3441C2.12803 1.7361 1.08269 2.79477 0.702693 4.13877L0.696026 4.16677C-0.235974 9.03477 -0.242641 14.8841 0.737359 20.0961L0.696026 19.8321C1.08269 21.2041 2.12669 22.2628 3.45336 22.6481L3.48136 22.6548C5.97336 23.3334 16.0147 23.3334 16.0147 23.3334C16.0147 23.3334 26.0267 23.3334 28.548 22.6548C29.9014 22.2628 30.9467 21.2041 31.3267 19.8601L31.3334 19.8321C31.7574 17.5681 32 14.9628 32 12.3014C32 12.2041 32 12.1054 31.9987 12.0068C32 11.9161 32 11.8081 32 11.7001C32 9.03743 31.7574 6.4321 31.292 3.90543ZM12.8107 16.8681V7.1441L21.1654 12.0134L12.8107 16.8681Z" fill="white"/>
</svg>
